<?xml version="1.0" encoding="UTF-8"?>
<svg id="Capa_1" data-name="Capa 1" xmlns="http://www.w3.org/2000/svg" viewBox="0 0 156.91 156.81">
  <defs>
    <style>
      .cls-1 {
        fill: #54a333;
      }
    </style>
  </defs>
  <path class="cls-1" d="M71.39,1.12c63.88-5.42,106.88,64.19,72.59,118.77-29.15,46.41-96.74,48.47-128.59,3.9C-19.5,74.95,11.88,6.17,71.39,1.12ZM73.55,6.17C9.44,10.67-17.81,91.15,31.12,133.31c43.36,37.36,111.09,11.56,118.95-44.85C156.36,43.33,119.03,2.97,73.55,6.17Z"/>
  <polygon class="cls-1" points="70.09 41.31 70.09 49.96 33.26 49.96 33.26 73.05 67.92 73.05 67.92 81.71 33.26 81.71 33.26 107.69 71.53 107.68 71.53 116.34 25.36 116.34 25.36 41.31 70.09 41.31"/>
  <path class="cls-1" d="M120.59,67.28v31.75h6.51v5.78s-6.51,0-6.51,0v11.54h-5.77v-11.54h-21.64v-5.74c3.61-3.87,23.67-31.78,23.67-31.78h3.75ZM114.82,99.02v-21.64l-15.15,21.64h15.15Z"/>
</svg>