<?xml version="1.0" encoding="UTF-8"?>
<svg id="Capa_1" data-name="Capa 1" xmlns="http://www.w3.org/2000/svg" viewBox="0 0 191.02 156.81">
  <defs>
    <style>
      .cls-1 {
        fill: #54a333;
      }
    </style>
  </defs>
  <polygon class="cls-1" points="45.28 60.55 45.28 43.96 1.96 43.96 1.96 60.55 11.9 60.55 11.9 96.05 1.96 96.05 1.96 112.65 45.28 112.65 45.28 96.05 35.34 96.05 35.34 60.55 45.28 60.55"/>
  <path class="cls-1" d="M93.08,70.31c-2.68-.78-16.45-4.72-18.84-5.5-2.39-.78-4.33-1.9-4.33-3.31s2.19-2.92,6.62-2.92c13.97,0,20.68,8.62,20.68,8.62,0,0,.76,1.01,1.01,1.37h13.48v-23.51h-14.47v4.28c-1.11-.76-9.26-6.09-21.92-6.09-16.7,0-25.99,8.66-25.99,21.61s11.73,18.3,14.99,19.67c3.26,1.36,16.01,4.96,21.47,6.67,5.45,1.7,7.45,2.92,7.45,3.8s-2.39,3.16-9.2,3.16c-11.87,0-17.98-7-19.06-8.36h0c-.34-.47-.74-1.01-.88-1.21-.16-.24-.52-.76-.78-1.12h-13.48v25.1h15.13v-5.24c1.76,1.17,10.77,6.79,21.59,6.79,12.07,0,27.45-5.26,27.45-21.66s-18.25-21.37-20.93-22.15Z"/>
  <path class="cls-1" d="M152.43,43.02c-20.12,0-36.63,10.06-36.63,35.75s17.92,35.3,36.72,35.3,36.54-9.53,36.54-35.04-17.74-36.01-36.63-36.01ZM152.6,96.95c-6.88,0-11.3-1.59-11.3-18.27s3.27-18.45,11.56-18.45c5.03,0,11.12.35,11.12,17.92s-4.5,18.8-11.39,18.8Z"/>
  <g>
    <path class="cls-1" d="M30.83,36.38c4.52-6.68,10.09-12.6,16.46-17.52,2.58,1.91,5.32,3.64,8.2,5.18-4.83,5.38-9.15,11.34-9.87,12.34h2.9c1.74-2.34,5.34-7.06,9.13-11.24,4.15,2.04,8.55,3.7,13.15,4.97-1.22,2.6-2.15,4.87-2.69,6.26h2.52c.58-1.44,1.43-3.45,2.48-5.66,5.86,1.43,12.01,2.24,18.29,2.36v3.31h2.34v-3.3c6.24-.05,12.35-.76,18.19-2.09,1,2.11,1.8,4.01,2.35,5.39h2.52c-.52-1.34-1.39-3.49-2.55-5.96,4.68-1.22,9.17-2.84,13.4-4.85,3.65,4.07,7.06,8.54,8.74,10.8h2.9c-.69-.97-4.8-6.62-9.46-11.88,3.2-1.66,6.24-3.54,9.08-5.64,6.38,4.92,11.94,10.84,16.46,17.52h2.81C144.35,15.05,120.35.91,93.09.91S41.83,15.05,28.01,36.38h2.81ZM71.84,27.98c-4.37-1.18-8.57-2.73-12.52-4.62.54-.56,1.07-1.1,1.61-1.61,5.42-5.22,14.32-10.96,16.28-12.19,1.58.87,3.31,1.61,5.15,2.19-1.43,1.87-4.23,5.68-7.29,10.5-1.19,1.88-2.27,3.85-3.22,5.74ZM91.39,30.74c-5.92-.12-11.7-.86-17.23-2.17.86-1.69,1.83-3.43,2.87-5.08,3.52-5.56,6.69-9.73,7.75-11.08,2.11.5,4.33.81,6.61.91v17.42h0ZM93.73,30.75V13.35c2.25-.04,4.46-.28,6.56-.7,1.21,1.56,4.23,5.58,7.57,10.85,1.1,1.73,2.11,3.57,3.01,5.34-5.51,1.22-11.26,1.87-17.14,1.91ZM113.21,28.28c-.99-1.98-2.12-4.06-3.38-6.04-2.9-4.57-5.57-8.23-7.06-10.19,1.96-.55,3.8-1.26,5.5-2.13,2.74,1.76,10.7,7.01,15.7,11.82.66.64,1.34,1.32,2.01,2.03-4.04,1.86-8.32,3.37-12.77,4.5ZM136.94,17.4c-2.74,1.98-5.67,3.75-8.75,5.31-.86-.92-1.73-1.82-2.59-2.65-4.67-4.51-11.63-9.23-15.04-11.45,1.16-.75,2.22-1.58,3.16-2.48,8.44,2.41,16.27,6.27,23.22,11.28ZM93.09,3.25c6.17,0,12.17.75,17.91,2.16-4.36,3.54-10.89,5.62-17.91,5.62s-13.56-2.07-17.92-5.61c5.74-1.41,11.74-2.16,17.92-2.16ZM72.47,6.13c.77.74,1.61,1.43,2.52,2.06-3.09,1.99-10.7,7.06-15.69,11.88-.72.69-1.45,1.43-2.17,2.2-2.76-1.45-5.4-3.07-7.88-4.86,6.95-5.01,14.78-8.86,23.22-11.28Z"/>
    <path class="cls-1" d="M155.37,120.43c-4.43,6.54-9.85,12.35-16.06,17.21-2.96-2.22-6.13-4.21-9.49-5.95,4.04-4.56,7.67-9.42,9.01-11.26h-2.91c-1.79,2.39-4.93,6.46-8.27,10.18-4.23-2.01-8.72-3.63-13.4-4.85.99-2.12,1.77-4,2.3-5.34h-2.52c-.54,1.31-1.25,2.96-2.1,4.77-5.84-1.33-11.95-2.04-18.19-2.09v-2.68h-2.34v2.69c-6.29.12-12.43.92-18.29,2.35-.91-1.91-1.67-3.67-2.23-5.04h-2.52c.56,1.4,1.39,3.4,2.45,5.64-4.6,1.27-9,2.93-13.15,4.97-3.48-3.84-6.8-8.13-8.66-10.62h-2.91c1.39,1.9,5.21,7.03,9.42,11.72-3.03,1.62-5.91,3.45-8.61,5.48-6.21-4.86-11.63-10.67-16.06-17.21h-2.81c13.82,21.33,37.83,35.47,65.08,35.47s51.26-14.14,65.08-35.47h-2.81ZM113.21,127.91c4.46,1.13,8.74,2.64,12.77,4.5-.67.71-1.35,1.39-2.01,2.04-4.98,4.8-12.92,10.04-15.68,11.81-1.7-.87-3.54-1.58-5.51-2.13,1.49-1.97,4.15-5.62,7.04-10.18,1.25-1.98,2.39-4.06,3.38-6.04ZM93.73,125.44c5.88.04,11.63.69,17.14,1.91-.9,1.77-1.91,3.61-3.01,5.34-3.33,5.26-6.35,9.27-7.56,10.84-2.1-.42-4.31-.66-6.57-.69v-17.4h0ZM91.39,125.46v17.41c-2.29.1-4.51.41-6.62.9-1.07-1.37-4.23-5.53-7.74-11.07-1.04-1.65-2.01-3.39-2.87-5.08,5.53-1.31,11.31-2.04,17.24-2.16ZM71.83,128.21c.95,1.89,2.04,3.86,3.23,5.74,3.05,4.82,5.85,8.62,7.28,10.49-1.84.58-3.57,1.32-5.15,2.19-1.96-1.24-10.86-6.97-16.27-12.19-.53-.51-1.07-1.05-1.61-1.61,3.95-1.89,8.15-3.44,12.52-4.62ZM48.82,139.1c2.6-1.91,5.38-3.64,8.3-5.17.72.76,1.45,1.51,2.17,2.2,5,4.82,12.6,9.89,15.69,11.88-1.1.77-2.1,1.62-3,2.54-8.43-2.47-16.24-6.38-23.17-11.44ZM93.09,153.56c-6.37,0-12.56-.8-18.47-2.3,4.32-3.79,11.17-6.09,18.47-6.09s14.15,2.3,18.47,6.09c-5.91,1.5-12.1,2.3-18.47,2.3ZM114.2,150.54c-1.06-1.09-2.27-2.09-3.62-2.97,3.42-2.22,10.36-6.94,15.03-11.44.86-.83,1.73-1.72,2.59-2.65,3.24,1.64,6.31,3.51,9.17,5.62-6.92,5.06-14.74,8.97-23.17,11.44Z"/>
  </g>
</svg>