<?xml version="1.0" encoding="UTF-8"?>
<svg id="Capa_1" data-name="Capa 1" xmlns="http://www.w3.org/2000/svg" viewBox="0 0 156.91 156.81">
  <defs>
    <style>
      .cls-1 {
        fill: #54a333;
      }
    </style>
  </defs>
  <path class="cls-1" d="M77.87.91c-13.4.35-26.1,3.52-36.67,9.52,3.52-1.41,9.17-2.47,14.11-2.47.35-.01.69-.01,1.03-.01,13.34,0,25.22,6.64,31.75,17.29,7.05,11.28,7.73,25.04,7.73,36.32,0,26.8,14.48,33.69,28.59,33.69,15.16,0,28.69-16.07,28.69-31.23C152.75,31.23,112.43.91,77.87.91ZM48.06,14.39c-5.7,0-11.45,1.3-16.25,3.83C12.76,28.32,1.74,54.32,1.48,78.4c-.14,12.93,2.55,25.8,8.34,36.39,6.35,11.99,15.17,21.5,25.39,28.2-2.47-2.47-6-7.05-8.46-11.29-6.7-11.99-5.99-25.73,0-37.02,6.35-11.99,18.46-20.07,28.33-25.36,23.62-12.34,22.92-29.62,17.28-41.96-4.07-8.82-14.09-13-24.3-13ZM155.44,81.3c-1.06,3.52-2.82,8.81-5.29,13.04-6.7,11.63-18.68,19.39-31.38,19.39-13.75,0-26.72-6.09-36.24-12.08-7.12-4.48-14.14-6.4-20.51-6.4-10.66,0-19.5,5.38-23.91,13.1-7.41,12.69,0,32.44,13.4,40.19,7.27,4.27,17.42,7.35,26.3,7.35,25.59,0,54.49-16.03,67.05-38.28,6.7-11.28,10.22-23.98,10.58-36.32Z"/>
</svg>